<?xml version="1.0" encoding="UTF-8" standalone="no"?>
<!-- Uploaded to: SVG Repo, www.svgrepo.com, Generator: SVG Repo Mixer Tools -->

<svg
   fill="#000000"
   height="800"
   width="800"
   version="1.1"
   id="Capa_1"
   viewBox="0 0 484.366 484.366"
   xml:space="preserve"
   sodipodi:docname="forum-message-svgrepo-com.svg"
   xmlns:inkscape="http://www.inkscape.org/namespaces/inkscape"
   xmlns:sodipodi="http://sodipodi.sourceforge.net/DTD/sodipodi-0.dtd"
   xmlns="http://www.w3.org/2000/svg"
   xmlns:svg="http://www.w3.org/2000/svg"><defs
   id="defs11925" /><sodipodi:namedview
   id="namedview11923"
   pagecolor="#ffffff"
   bordercolor="#000000"
   borderopacity="0.25"
   inkscape:showpageshadow="2"
   inkscape:pageopacity="0.0"
   inkscape:pagecheckerboard="0"
   inkscape:deskcolor="#d1d1d1"
   showgrid="false" />
<g
   id="g11920">
	<path
   d="m 483.629,457.833 -7.731,-38.872 c -3.07,-15.4 -15.117,-27.43 -30.517,-30.478 l -10.474,-2.07 c -6.014,-1.188 -10.738,-5.866 -11.998,-11.881 l -1.982,-9.621 c -0.647,-3.079 0.472,-6.269 2.895,-8.275 9.449,-7.826 18.095,-19.354 23.133,-32.958 6.945,-1.253 13.291,-7.937 15.338,-17.141 2.52,-11.401 -2.504,-22.218 -11.211,-24.156 -0.111,-0.015 -0.221,-0.008 -0.316,-0.015 -2.628,-29.613 -14.03,-51.54 -51.964,-51.54 -37.288,0 -49.13,21.919 -51.917,51.523 -0.111,0.023 -0.236,0.017 -0.362,0.031 -8.724,1.939 -13.732,12.755 -11.212,24.156 2.046,9.204 8.377,15.888 15.338,17.141 5.039,13.612 13.7,25.132 23.131,32.966 2.426,1.999 3.545,5.189 2.914,8.259 l -2,9.622 c -1.244,6.015 -5.968,10.7 -12,11.896 l -10.471,2.063 c -15.401,3.048 -27.446,15.078 -30.518,30.478 l -7.732,38.872 c -1.29,6.52 0.396,13.282 4.615,18.416 4.22,5.141 10.518,8.117 17.163,8.117 h 126.101 c 6.647,0 12.945,-2.977 17.165,-8.117 4.219,-5.134 5.904,-11.896 4.612,-18.416 z"
   id="path11912" />
	<path
   d="m 162.662,418.961 c -3.071,-15.4 -15.116,-27.43 -30.518,-30.478 l -10.472,-2.07 c -6.016,-1.188 -10.738,-5.866 -11.999,-11.881 l -1.984,-9.621 c -0.646,-3.079 0.473,-6.269 2.898,-8.275 9.447,-7.826 18.092,-19.354 23.131,-32.958 6.945,-1.253 13.292,-7.937 15.338,-17.141 2.52,-11.401 -2.504,-22.218 -11.212,-24.156 -0.109,-0.015 -0.221,-0.008 -0.314,-0.015 -2.63,-29.613 -14.032,-51.54 -51.966,-51.54 -37.288,0 -49.13,21.919 -51.916,51.523 -0.111,0.023 -0.237,0.017 -0.363,0.031 -8.724,1.939 -13.731,12.755 -11.212,24.156 2.048,9.204 8.377,15.888 15.339,17.141 5.038,13.612 13.699,25.132 23.133,32.966 2.423,1.999 3.542,5.189 2.911,8.259 l -1.999,9.622 c -1.245,6.015 -5.968,10.7 -11.999,11.896 l -10.473,2.063 c -15.399,3.048 -27.446,15.078 -30.516,30.478 l -7.733,38.872 c -1.292,6.52 0.394,13.282 4.613,18.416 4.22,5.141 10.519,8.117 17.165,8.117 h 126.101 c 6.646,0 12.943,-2.977 17.163,-8.117 4.22,-5.134 5.905,-11.896 4.615,-18.416 z"
   id="path11914" />
	<path
   d="m 334.491,253.329 c 1.718,-1.686 2.017,-4.348 0.74,-6.37 L 317.5,210.78 h 24.612 c 12.692,0 22.959,-10.267 22.959,-22.958 V 83.773 c 0,-12.691 -10.267,-22.958 -22.959,-22.958 H 284.92 v 66.199 c 0,24.07 -19.574,43.643 -43.65,43.643 h -67.995 l -17.637,11.787 v 5.378 c 0,12.691 10.282,22.958 22.958,22.958 h 74.279 l 75.206,43.146 c 2.016,1.331 4.694,1.088 6.41,-0.597 z"
   id="path11916" />
	<path
   d="m 77.753,149.974 h 24.613 l -18.156,36.43 c -1.307,2.032 -0.977,4.7 0.74,6.377 0.977,0.962 2.252,1.448 3.559,1.448 0.993,0 1.969,-0.282 2.835,-0.857 l 75.647,-43.398 h 74.278 c 12.676,0 22.959,-10.291 22.959,-22.959 V 22.959 C 264.229,10.283 253.946,0 241.27,0 H 77.753 C 65.062,0 54.795,10.283 54.795,22.959 v 104.056 c 0,12.668 10.267,22.959 22.958,22.959 z M 205.304,57.815 c 9.48,0 17.18,7.685 17.18,17.172 0,9.479 -7.7,17.164 -17.18,17.164 -9.48,0 -17.165,-7.685 -17.165,-17.164 0,-9.487 7.685,-17.172 17.165,-17.172 z m -45.793,0 c 9.479,0 17.165,7.685 17.165,17.172 0,9.479 -7.686,17.164 -17.165,17.164 -9.479,0 -17.18,-7.685 -17.18,-17.164 0.001,-9.487 7.702,-17.172 17.18,-17.172 z m -45.807,0 c 9.513,0 17.181,7.685 17.181,17.172 0,9.479 -7.668,17.164 -17.181,17.164 -9.464,0 -17.163,-7.685 -17.163,-17.164 0,-9.487 7.699,-17.172 17.163,-17.172 z"
   id="path11918" />
<path
   style="fill:#0430d4;fill-opacity:1;stroke-width:0.982801"
   d="m 141.32844,318.4263 c -4.93104,-3.45384 -4.43217,-5.00806 12.42474,-38.70912 8.679,-17.35141 15.77999,-31.77183 15.77999,-32.04538 0,-0.27354 -10.31285,-0.49735 -22.91744,-0.49735 -25.33851,0 -29.78914,-0.7064 -38.23477,-6.06857 -6.20649,-3.94054 -10.255938,-8.73357 -13.931194,-16.4893 l -3.049275,-6.43476 v -94.3489 -94.348891 l 3.037202,-6.388206 C 99.682304,12.064731 106.09665,6.2798892 117.24951,2.5227625 c 5.98307,-2.01554845 7.11968,-2.03136201 146.00663,-2.03136201 137.35135,0 140.09376,0.0369494 146.22264,1.97012681 11.75182,3.7067658 20.71656,12.6715067 24.42333,24.4233227 1.91229,6.062648 1.97013,8.90902 1.97013,96.94807 0,88.03906 -0.0579,90.88543 -1.97013,96.94807 -3.70677,11.75183 -12.67151,20.71656 -24.42333,24.42333 -5.98336,1.88728 -8.9296,1.97013 -70.06025,1.97013 h -63.81424 l -63.43828,36.36363 c -40.33518,23.12065 -64.40206,36.36364 -66.08469,36.36364 -1.45553,0 -3.59433,-0.66394 -4.75288,-1.47542 z m 59.48048,-168.95244 c 16.61305,-8.41847 20.95712,-30.51858 8.72939,-44.41002 -15.90515,-18.069193 -45.18817,-10.181132 -49.92251,13.44779 -4.62838,23.10009 20.07146,41.66538 41.19312,30.96223 z m 75.07166,0.33813 c 5.77959,-2.89456 10.29725,-7.36237 13.34999,-13.20265 2.14603,-4.10561 2.56858,-6.20745 2.56858,-12.77642 0,-6.56896 -0.42255,-8.67081 -2.56858,-12.77641 -3.06969,-5.87271 -7.54346,-10.2787 -13.55489,-13.349527 -6.28845,-3.212337 -17.16146,-3.222139 -24.31611,-0.02192 -17.49569,7.825677 -22.14859,32.210897 -8.80309,46.135707 3.34858,3.49393 9.121,6.86223 13.95458,8.14271 4.77723,1.26556 14.76094,0.15661 19.36952,-2.15149 z m 75.67568,0 c 5.77958,-2.89456 10.29724,-7.36237 13.34999,-13.20265 2.14603,-4.10561 2.56858,-6.20745 2.56858,-12.77642 0,-6.56896 -0.42255,-8.67081 -2.56858,-12.77641 -3.06506,-5.86385 -7.53266,-10.26824 -13.5549,-13.363157 -6.59121,-3.387317 -18.27506,-3.247615 -25.06142,0.299659 -10.27406,5.370298 -15.67164,14.270028 -15.67164,25.839908 0,13.66336 8.42215,24.64792 21.56844,28.13056 4.77723,1.26556 14.76095,0.15661 19.36953,-2.15149 z"
   id="path12359"
   transform="scale(0.6054575)" /><path
   style="fill:#108010;stroke-width:0.982801"
   d="m 481.07605,383.80375 -63.34273,-36.34366 -65.86912,-0.26567 -65.86911,-0.26567 -6.60911,-3.13086 c -7.92336,-3.75345 -14.35848,-10.05686 -18.12374,-17.75277 -2.26943,-4.63855 -2.79721,-7.17996 -3.1104,-14.97729 l -0.37718,-9.3908 14.26942,-9.50697 14.26942,-9.50696 62.24866,-0.34638 c 61.40984,-0.34171 62.34776,-0.37645 69.60361,-2.578 20.32466,-6.16685 36.1862,-19.46928 45.27427,-37.96968 7.45052,-15.16689 7.2038,-12.54934 7.57658,-80.38535 l 0.33373,-60.72933 50.81131,0.28707 c 50.55043,0.2856 50.84032,0.29878 56.45914,2.56776 12.03989,4.86191 21.39902,17.04745 23.32537,30.3695 1.23484,8.53979 1.28719,172.4764 0.0578,180.98027 -1.81971,12.58716 -9.8975,23.64305 -21.39917,29.28857 l -5.66622,2.78122 -25.30712,0.3061 c -13.91892,0.16835 -25.30713,0.66797 -25.30713,1.11025 0,0.44228 6.85504,14.87732 15.23342,32.07784 8.37838,17.20053 15.23341,31.8144 15.23341,32.47527 0,2.50663 -5.05749,7.24921 -7.73055,7.24921 -1.67767,0 -25.7593,-13.26393 -65.98455,-36.34367 z"
   id="path12361"
   transform="scale(0.6054575)" /><path
   style="fill:#108010;stroke-width:0.982801"
   d="M 27.940392,798.16475 C 18.126573,795.51866 8.9411384,787.70126 4.3639033,778.09961 -0.00779544,768.92912 0.43046995,762.85956 8.3002717,723.58463 12.172713,704.25887 16.188261,685.98449 17.223713,682.9749 c 4.191252,-12.18208 12.868536,-23.27904 24.05211,-30.75907 9.201664,-6.15444 14.328929,-8.05005 31.966168,-11.81826 21.896175,-4.67813 25.768269,-8.31493 30.083429,-28.25532 3.59328,-16.60461 3.57899,-16.64987 -9.355052,-29.63185 -11.883305,-11.92735 -22.03482,-26.2971 -28.115386,-39.79811 -3.63917,-8.08025 -3.899762,-8.38587 -8.927164,-10.46961 -5.799154,-2.40361 -12.786898,-9.20505 -16.071088,-15.64259 -9.298165,-18.22591 -4.417132,-41.2161 10.168242,-47.8935 l 5.043574,-2.30903 1.237786,-9.08851 c 5.198721,-38.17192 21.166165,-60.7103 50.061068,-70.66223 19.45622,-6.70108 51.05507,-6.27316 70.87382,0.95978 27.28248,9.95688 42.55264,32.68679 47.3791,70.52467 1.11867,8.76996 1.21645,9.00513 3.97351,9.55654 3.85125,0.77025 11.06968,7.63326 13.52698,12.86095 8.74219,18.59821 -0.61121,45.51809 -18.14157,52.21299 -4.09742,1.56482 -4.59187,2.18539 -8.77149,11.00864 -6.57982,13.89013 -14.38849,24.97776 -26.10369,37.06499 -5.76295,5.94595 -10.97992,11.77683 -11.59329,12.9575 -1.62682,3.13155 -1.37412,8.55258 0.88016,18.8813 2.30978,10.58305 4.39943,15.10053 8.97504,19.40253 4.8966,4.6038 7.90461,5.76793 22.42804,8.67987 7.28806,1.46125 15.77306,3.68161 18.85554,4.93413 15.59293,6.33598 30.19729,21.43343 35.77241,36.98018 2.2063,6.15248 16.15052,76.14807 16.15052,81.07052 0,5.98565 -3.43323,15.91567 -7.32617,21.1897 -4.28249,5.80177 -10.98327,10.4333 -18.46243,12.76108 -5.53393,1.72235 -11.46799,1.81297 -114.5938,1.75008 -82.915218,-0.0506 -109.825023,-0.35413 -113.249688,-1.27752 z"
   id="path12363"
   transform="scale(0.6054575)" /><path
   style="fill:#0430d4;fill-opacity:1;stroke-width:0.982801"
   d="m 543.78798,797.62359 c -7.06691,-2.27302 -14.67799,-7.82113 -18.651,-13.59571 -3.659,-5.31817 -6.70946,-14.53418 -6.70946,-20.27051 0,-4.97351 13.9462,-74.93393 16.18716,-81.20209 4.87223,-13.62804 18.01596,-28.20545 31.38959,-34.81349 5.32016,-2.62874 11.326,-4.46357 21.43077,-6.54726 16.62638,-3.42851 18.74463,-4.20365 23.68543,-8.66738 5.00753,-4.524 7.09731,-8.89644 9.4886,-19.85297 2.25428,-10.32872 2.50698,-15.74975 0.88016,-18.8813 -0.61337,-1.18067 -5.83034,-7.01155 -11.59328,-12.9575 -11.71522,-12.08723 -19.52389,-23.17486 -26.1037,-37.06499 -4.17962,-8.82325 -4.67407,-9.44382 -8.77149,-11.00864 -6.79742,-2.59595 -12.83602,-8.58447 -16.74865,-16.60973 -5.73708,-11.76742 -6.41438,-23.87902 -1.93488,-34.59997 2.0899,-5.00184 8.13629,-11.31388 12.83655,-13.40054 l 4.06321,-1.80384 1.16002,-8.11241 c 2.54941,-17.829 7.98368,-34.23351 14.77471,-44.60066 5.43477,-8.2967 15.83999,-17.81982 24.3585,-22.29354 3.92195,-2.05971 11.43786,-4.89882 16.70202,-6.30913 8.67656,-2.32452 11.31662,-2.56914 28.24442,-2.61704 16.24328,-0.046 19.82423,0.23639 27.51843,2.16977 14.46296,3.63421 24.2092,8.94022 33.5304,18.2545 6.83314,6.82806 8.68715,9.45205 12.92373,18.29106 5.46986,11.41207 8.40826,21.52907 10.13335,34.88944 1.48143,11.47327 1.30296,11.01728 4.59505,11.74034 7.91549,1.73853 15.61352,13.62377 16.62086,25.66148 1.36523,16.31459 -7.78773,33.45846 -20.72629,38.8212 -5.02741,2.08374 -5.288,2.38936 -8.92717,10.46961 -6.08057,13.50101 -16.23209,27.87076 -28.11539,39.79811 -12.72073,12.76787 -12.85252,13.14776 -9.71819,28.01158 4.58771,21.7561 7.97017,25.05944 30.62473,29.90827 17.46072,3.73718 22.60781,5.64549 31.78801,11.78558 11.23774,7.51626 19.85994,18.57433 24.10631,30.91659 1.06525,3.09624 5.07874,21.37061 8.91886,40.60972 5.96893,29.90455 6.91778,36.04976 6.53923,42.35123 -0.78087,12.99845 -8.08225,23.73424 -20.19871,29.69968 l -6.5486,3.22415 -111.07776,0.20343 c -105.30739,0.19285 -111.36856,0.1099 -116.67553,-1.59704 z"
   id="path14415"
   transform="scale(0.6054575)" /></g>
</svg>
