<?xml version="1.0" encoding="UTF-8" standalone="no"?>
<!-- Uploaded to: SVG Repo, www.svgrepo.com, Generator: SVG Repo Mixer Tools -->

<svg
   height="800"
   width="800"
   version="1.1"
   id="Layer_1"
   viewBox="0 0 512.002 512.002"
   xml:space="preserve"
   xmlns="http://www.w3.org/2000/svg"
   xmlns:svg="http://www.w3.org/2000/svg"><defs
   id="defs33" />
<g
   id="g16">
	<path
   style="fill:#000000"
   d="m 273.533,158.596 c 6.354,-2.1 41.073,-19.831 58.785,-38.836 1.221,-1.399 2.35,-2.805 3.366,-4.217 1.226,3.277 14.116,34.226 44.131,36.203 h 0.096 c 1.903,-17.371 2.263,-34.719 -1.486,-47.273 C 360.63,44.898 311.877,10.67 256,10.665 c -55.879,0 -104.629,34.234 -122.425,93.808 -3.75,12.555 -3.391,29.902 -1.487,47.273 l 0.096,0.002 c 0,0 74.294,-7.938 106.95,-29.236 l 11.586,27.799 c 6.507,15.616 3.293,14.731 22.813,8.285 z"
   id="path2" />
	<path
   style="fill:#bd8041;fill-opacity:1"
   d="m 273.533,158.596 c -19.52,6.446 -16.306,7.331 -22.813,-8.286 l -11.586,-27.799 c -32.655,21.298 -106.95,29.236 -106.948,29.234 h -0.098 c 2.507,22.885 7.691,45.807 9.67,57.845 1.749,10.618 3.44,19.491 5.186,27.002 2.832,12.188 5.812,20.777 9.412,27.383 8.488,15.573 20.435,20.124 42.112,34.828 38.089,21.987 76.898,22.029 115.061,-0.004 21.677,-14.702 33.625,-19.253 42.101,-34.832 3.615,-6.598 6.593,-15.186 9.427,-27.374 1.745,-7.509 3.436,-16.383 5.184,-27.002 1.981,-12.038 7.164,-34.958 9.669,-57.845 h -0.096 c -30.015,-1.978 -42.906,-32.926 -44.131,-36.203 -1.017,1.411 -2.146,2.818 -3.366,4.217 -17.711,19.006 -52.43,36.736 -58.784,38.836 z"
   id="path4" />
	<g
   id="g10">
		<path
   style="fill:#f9f9f9"
   d="m 146.944,236.591 c -1.747,-7.509 -3.438,-16.383 -5.186,-27.002 -1.979,-12.036 -7.164,-34.958 -9.67,-57.845 H 116.64 c -14.092,0 -25.618,11.528 -25.618,25.616 v 33.613 c 0,14.091 11.531,25.617 25.618,25.617 h 30.304 z"
   id="path6" />
		<path
   style="fill:#f9f9f9"
   d="m 379.913,151.746 c -2.507,22.885 -7.689,45.805 -9.669,57.845 -1.749,10.618 -3.44,19.491 -5.184,27.002 h 30.304 c 14.088,0 25.618,-11.526 25.618,-25.617 v -33.613 c 0,-14.089 -11.526,-25.616 -25.618,-25.616 h -15.451 z"
   id="path8" />
	</g>
	<path
   style="fill:#108010;fill-opacity:1"
   d="m 474.668,458.662 c 0,-84.877 -48.363,-158.461 -119.036,-194.697 -8.475,15.579 -20.424,20.13 -42.101,34.832 -38.163,22.033 -76.972,21.992 -115.061,0.004 C 176.793,284.097 164.845,279.545 156.369,263.965 85.696,300.202 37.335,373.787 37.335,458.662 h 77.867 L 96,394.664 h 320.002 l -19.198,63.998 z"
   id="path12" />
	<polygon
   style="fill:#666666"
   points="384.002,501.33 396.804,458.662 416.003,394.664 96.001,394.664 115.202,458.662 128.002,501.33 "
   id="polygon14" />
</g>
<g
   id="g28">
	<path
   style="fill:#000003"
   d="m 128.496,336.827 c -4.499,-3.802 -11.228,-3.237 -15.033,1.262 -1.468,1.738 -2.921,3.52 -4.317,5.299 -3.638,4.634 -2.831,11.339 1.803,14.976 1.953,1.535 4.275,2.277 6.579,2.277 3.163,0 6.292,-1.401 8.397,-4.08 1.238,-1.578 2.528,-3.159 3.831,-4.701 3.804,-4.5 3.239,-11.23 -1.26,-15.033 z"
   id="path18" />
	<path
   style="fill:#000003"
   d="m 325.299,127.789 c 2.023,1.769 4.524,2.636 7.016,2.636 2.971,0 5.928,-1.234 8.035,-3.647 1.469,-1.68 2.811,-3.362 3.99,-5.001 3.442,-4.78 2.359,-11.446 -2.421,-14.89 -4.781,-3.443 -11.446,-2.358 -14.89,2.421 -0.79,1.098 -1.714,2.251 -2.742,3.429 -3.877,4.437 -3.424,11.175 1.012,15.052 z"
   id="path20" />
	<path
   style="fill:#000003"
   d="m 501.335,447.995 h -16.254 c -1.812,-39.245 -13.6,-77.268 -34.378,-110.568 -20.219,-32.404 -48.171,-59.207 -81.219,-78.058 1.372,-3.602 2.658,-7.61 3.891,-12.111 h 21.989 c 20.007,0 36.283,-16.277 36.283,-36.284 v -33.613 c 0,-20.007 -16.276,-36.283 -36.283,-36.283 h -3.785 c 0.926,-14.488 0.416,-28.445 -2.935,-39.659 C 379.394,70.449 361.842,44.608 337.882,26.687 314.542,9.23 286.227,0.001 256.001,0 225.775,0 197.46,9.228 174.118,26.688 c -23.957,17.92 -41.512,43.761 -50.764,74.732 -3.35,11.214 -3.859,25.171 -2.933,39.66 h -3.782 c -20.007,0 -36.283,16.276 -36.283,36.283 v 33.613 c 0,20.007 16.276,36.284 36.283,36.284 h 21.988 c 1.233,4.502 2.519,8.51 3.891,12.111 C 109.472,278.221 81.519,305.024 61.3,337.43 40.522,370.732 28.736,408.752 26.923,447.997 H 10.668 c -5.89,0 -10.667,4.777 -10.667,10.667 0,5.89 4.777,10.667 10.667,10.667 h 26.667 69.93 l 10.52,35.067 c 1.354,4.511 5.506,7.601 10.217,7.601 h 209.926 c 0.017,0 0.032,0.003 0.048,0.003 0.025,0 0.05,-0.003 0.075,-0.003 h 45.951 c 4.71,0 8.864,-3.09 10.217,-7.601 l 10.52,-35.067 h 69.93 26.667 c 5.89,0 10.667,-4.777 10.667,-10.667 -0.001,-5.892 -4.778,-10.669 -10.668,-10.669 z M 395.365,162.413 c 8.243,0 14.949,6.706 14.949,14.949 v 33.613 c 0,8.244 -6.706,14.951 -14.949,14.951 H 378.19 c 0.86,-4.507 1.714,-9.355 2.578,-14.602 0.56,-3.404 1.405,-7.806 2.382,-12.904 2.017,-10.512 4.419,-23.041 6.211,-36.007 h 6.003 v 0 z M 143.796,107.526 c 15.883,-53.166 58.876,-86.193 112.206,-86.193 53.332,0.002 96.326,33.028 112.203,86.194 3.194,10.688 2.919,25.987 1.264,41.675 -0.201,0.817 -0.318,1.665 -0.318,2.544 0,0.077 0.011,0.153 0.012,0.228 -1.764,15.31 -4.723,30.751 -6.962,42.426 -1.006,5.245 -1.875,9.775 -2.481,13.457 -1.487,9.032 -2.882,16.655 -4.285,23.172 -15.733,14.299 -42.51,24.087 -69.696,26.406 -0.771,-5.134 -5.187,-9.074 -10.536,-9.074 h -19.201 c -5.89,0 -10.667,4.777 -10.667,10.667 v 8.533 c 0,0.115 0.014,0.227 0.018,0.34 0.006,0.213 0.013,0.427 0.031,0.638 0.014,0.148 0.036,0.292 0.057,0.439 0.027,0.203 0.054,0.405 0.092,0.604 0.031,0.159 0.07,0.316 0.108,0.473 0.044,0.178 0.085,0.356 0.138,0.532 0.05,0.171 0.109,0.336 0.169,0.503 0.054,0.156 0.109,0.314 0.171,0.467 0.068,0.173 0.148,0.34 0.227,0.509 0.067,0.142 0.131,0.285 0.203,0.422 0.086,0.165 0.182,0.327 0.277,0.487 0.08,0.134 0.158,0.27 0.242,0.401 0.1,0.151 0.206,0.298 0.313,0.444 0.096,0.132 0.192,0.265 0.293,0.393 0.107,0.133 0.219,0.26 0.332,0.387 0.115,0.131 0.231,0.262 0.353,0.388 0.111,0.114 0.226,0.222 0.341,0.331 0.135,0.128 0.271,0.255 0.413,0.375 0.115,0.098 0.237,0.19 0.355,0.284 0.153,0.117 0.303,0.235 0.461,0.343 0.125,0.086 0.254,0.166 0.383,0.249 0.16,0.102 0.321,0.203 0.487,0.295 0.141,0.079 0.287,0.151 0.431,0.223 0.16,0.081 0.321,0.162 0.487,0.236 0.164,0.071 0.334,0.135 0.505,0.201 0.153,0.058 0.304,0.117 0.462,0.169 0.191,0.063 0.385,0.113 0.58,0.165 0.146,0.038 0.289,0.079 0.437,0.112 0.204,0.045 0.413,0.077 0.621,0.111 0.114,0.018 0.225,0.046 0.34,0.061 0.067,0.009 0.135,0.014 0.203,0.021 0.027,0.003 0.052,0.006 0.079,0.01 6.076,0.756 12.273,1.126 18.513,1.126 24.068,0 48.73,-5.449 69.066,-14.911 -5.082,6.342 -11.688,10.548 -21.194,16.594 -3.97,2.525 -8.46,5.38 -13.457,8.762 -17.228,9.885 -34.68,14.895 -51.877,14.895 -17.194,0 -34.642,-5.009 -51.866,-14.889 -4.997,-3.381 -9.486,-6.237 -13.456,-8.763 -18.938,-12.047 -26.378,-16.782 -33.147,-45.683 -0.09,-0.743 -0.256,-1.462 -0.492,-2.153 -1.561,-6.966 -3.1,-15.265 -4.751,-25.295 -0.606,-3.685 -1.476,-8.221 -2.483,-13.472 -1.797,-9.372 -4.059,-21.175 -5.794,-33.385 19.584,-2.735 61.573,-9.824 89.863,-23.396 l 7.005,16.807 c 0.716,1.719 1.31,3.231 1.826,4.549 2.357,6 4.583,11.667 11.252,13.915 1.598,0.539 3.134,0.778 4.705,0.777 3.73,0 7.665,-1.344 13.119,-3.206 1.499,-0.513 3.189,-1.09 5.097,-1.719 7.397,-2.439 22.243,-9.801 36.305,-19.149 4.906,-3.262 6.238,-9.883 2.976,-14.788 -3.263,-4.907 -9.884,-6.237 -14.788,-2.976 -13.119,8.722 -26.127,14.99 -31.179,16.655 -1.989,0.657 -3.747,1.258 -5.307,1.79 -0.779,0.266 -1.586,0.542 -2.364,0.803 -0.555,-1.411 -1.188,-3.023 -1.951,-4.853 l -11.586,-27.8 c -1.219,-2.925 -3.676,-5.157 -6.704,-6.091 -3.031,-0.933 -6.316,-0.471 -8.969,1.26 -23.074,15.049 -70.398,23.175 -91.589,26.185 -0.806,-12.251 -0.469,-23.713 2.079,-32.237 z m -27.158,118.399 c -8.243,0 -14.949,-6.706 -14.949,-14.951 v -33.613 c 0,-8.243 6.706,-14.949 14.949,-14.949 h 6.002 c 1.792,12.959 4.193,25.485 6.208,35.992 0.978,5.103 1.824,9.51 2.384,12.918 0.864,5.248 1.719,10.096 2.578,14.602 h -17.172 z m 259.427,264.738 h -24.196 l 4.441,-16.576 c 1.525,-5.691 -1.852,-11.539 -7.542,-13.064 -5.694,-1.526 -11.54,1.853 -13.064,7.542 l -5.92,22.097 H 135.938 l -10.524,-35.078 c -0.016,-0.053 -0.03,-0.106 -0.047,-0.158 l -15.03,-50.097 h 23.512 l 5.92,22.096 c 1.277,4.766 5.586,7.909 10.297,7.909 0.912,0 1.843,-0.118 2.767,-0.367 5.691,-1.524 9.068,-7.373 7.542,-13.064 l -4.441,-16.575 h 245.732 l -15.044,50.145 c -0.003,0.013 -0.006,0.025 -0.011,0.037 z m 35.074,-42.668 15.081,-50.266 c 0.969,-3.23 0.354,-6.729 -1.659,-9.434 -2.014,-2.705 -5.186,-4.299 -8.558,-4.299 H 96.001 c -3.372,0 -6.545,1.594 -8.558,4.299 -2.013,2.705 -2.627,6.203 -1.659,9.434 l 15.081,50.266 H 48.271 C 51.85,376.994 91.04,313.301 152.884,278.008 c 4.619,5.669 10.165,10.182 17.119,14.945 -10.396,5.405 -20.314,11.795 -29.485,19.017 -4.628,3.646 -5.425,10.352 -1.78,14.98 2.106,2.672 5.23,4.067 8.387,4.067 2.309,0 4.637,-0.747 6.593,-2.287 8.378,-6.598 17.455,-12.42 26.987,-17.306 l 9.878,-5.067 c 0.633,0.422 1.252,0.832 1.899,1.27 l 0.654,0.411 c 20.615,11.9 41.762,17.935 62.859,17.935 0.001,0 0.001,0 0.002,0 21.097,0 42.249,-6.036 62.868,-17.94 l 0.653,-0.41 c 4.869,-3.302 9.327,-6.138 13.261,-8.639 11.505,-7.316 19.841,-13.003 26.337,-20.977 61.846,35.294 101.037,98.987 104.616,169.987 z"
   id="path22" />
	<path
   style="fill:#000003"
   d="m 169.069,454.348 c -1.525,-5.689 -7.369,-9.065 -13.066,-7.54 -5.691,1.526 -9.066,7.376 -7.54,13.066 l 1.246,4.645 c 1.278,4.765 5.587,7.907 10.297,7.907 0.913,0 1.844,-0.118 2.769,-0.367 5.691,-1.526 9.066,-7.376 7.54,-13.066 z"
   id="path24" />
	<path
   style="fill:#000003"
   d="m 358.708,423.933 c -5.688,-1.53 -11.538,1.849 -13.066,7.538 l -1.246,4.644 c -1.527,5.69 1.847,11.539 7.538,13.066 0.925,0.249 1.855,0.368 2.77,0.368 4.708,0 9.018,-3.141 10.296,-7.906 l 1.246,-4.644 c 1.527,-5.689 -1.848,-11.539 -7.538,-13.066 z"
   id="path26" />
</g>
</svg>
